# xmcd
#
# Track frame offsets:
#	150
#	20770
#	43273
#	59966
#	78614
#	94343
#	117451
#	132833
#	148025
#	166385
#	185047
#	206927
#	225672
#
# Disc length: 3191 seconds
#
# Revision: 1
# Processed by: cddbd v1.5.2PL0 Copyright (c) Steve Scherf et al.
# Submitted via: audiograbber 1.83.01
#
DISCID=d00c750d
DTITLE=Lightnin' Hopkins - Lightnin'
DYEAR=1960
DGENRE=Blues
TTITLE0=automobile blues
TTITLE1=you better watch yourself
TTITLE2=mean old Frisco
TTITLE3=shinin' moon
TTITLE4=come back baby
TTITLE5=thinking'bout an old friend
TTITLE6=the walkin' blues
TTITLE7=back to New Orleans
TTITLE8=Katie Mae
TTITLE9=down there baby
TTITLE10=walkin' the road by myself
TTITLE11=black gal
TTITLE12=now many more Years
EXTD=
EXTT0=
EXTT1=
EXTT2=
EXTT3=
EXTT4=
EXTT5=
EXTT6=
EXTT7=
EXTT8=
EXTT9=
EXTT10=
EXTT11=
EXTT12=
PLAYORDER=
